<svg xmlns="http://www.w3.org/2000/svg" viewBox="0 0 900 1100"><defs><linearGradient id="bg" x1="0" y1="0" x2="1" y2="1"><stop stop-color="#d5dfcc"/><stop offset="1" stop-color="#697a65"/></linearGradient><filter id="shadow"><feDropShadow dx="0" dy="26" stdDeviation="24" flood-opacity=".22"/></filter></defs><rect width="900" height="1100" fill="url(#bg)"/><g opacity=".16" stroke="#fff" fill="none"><circle cx="740" cy="200" r="180"/><path d="M-80 990 780 130"/></g><g filter="url(#shadow)"><g transform="translate(60 120) rotate(-8 400 500)"><circle cx="475" cy="180" r="58" fill="#8a5237"/><path d="M420 247c60-39 131-18 157 35l31 168-162 35-68-150 42-88Z" fill="#181b17"/><path d="m392 285-143 130 42 45 149-101-48-74Z" fill="#8a5237"/><path d="m571 303 153 95-31 51-156-65 34-81Z" fill="#8a5237"/><path d="m443 456 164-23 21 169-113 11-19-101-18 102-112 5 77-163Z" fill="#d7ff3f"/><path d="m377 600 104 4-33 250-75-2 4-252Z" fill="#8a5237"/><path d="m520 604 102-8 106 217-69 32-139-241Z" fill="#8a5237"/><path d="M362 838h92l38 57H335l27-57ZM650 824l79-34 59 34-127 61-11-61Z" fill="#151713"/></g></g></svg>