<svg xmlns="http://www.w3.org/2000/svg" viewBox="0 0 1000 1200">
<defs>
  <linearGradient id="bg" x1="0" y1="0" x2="1" y2="1"><stop stop-color="#cfdcc6"/><stop offset="1" stop-color="#9fb59b"/></linearGradient>
  <linearGradient id="skin" x1="0" y1="0" x2="1" y2="1"><stop stop-color="#b06d48"/><stop offset="1" stop-color="#7f432d"/></linearGradient>
  <linearGradient id="shirt" x1="0" y1="0" x2="1" y2="1"><stop stop-color="#1a1e1a"/><stop offset="1" stop-color="#343a34"/></linearGradient>
  <linearGradient id="shorts" x1="0" y1="0" x2="1" y2="1"><stop stop-color="#d7ff3f"/><stop offset="1" stop-color="#9cc620"/></linearGradient>
  <filter id="shadow"><feDropShadow dx="0" dy="22" stdDeviation="25" flood-opacity=".22"/></filter>
</defs>
<rect width="1000" height="1200" fill="url(#bg)"/>
<g opacity=".28" stroke="#fff" fill="none"><circle cx="800" cy="220" r="210"/><circle cx="800" cy="220" r="140"/><path d="M-50 950 650 250M-40 1110 860 210"/></g>
<ellipse cx="540" cy="1112" rx="300" ry="45" fill="#536150" opacity=".22"/>
<g filter="url(#shadow)">
  <!-- head -->
  <circle cx="540" cy="218" r="74" fill="url(#skin)"/>
  <path d="M474 212c8-89 120-110 153-24-34-32-77-34-118-10l-35 34Z" fill="#151713"/>
  <path d="M600 185c26 7 49 28 54 57-20 2-37-5-48-18l-6-39Z" fill="#151713"/>
  <!-- neck -->
  <path d="M505 272h75l13 79-100 3 12-82Z" fill="url(#skin)"/>
  <!-- torso -->
  <path d="M455 326c41-29 118-31 160 1 26 60 41 137 44 226-76 34-174 29-250-8 8-83 17-161 46-219Z" fill="url(#shirt)"/>
  <path d="M454 343c-60 58-104 139-125 242l47 15c31-83 73-142 116-185l-38-72Z" fill="url(#skin)"/>
  <path d="m330 581-45 154 43 14 54-151-52-17Z" fill="url(#skin)"/>
  <path d="M614 339c60 50 105 122 135 211l-47 21c-37-76-76-126-117-162l29-70Z" fill="url(#skin)"/>
  <path d="m704 549 57 145-42 20-67-139 52-26Z" fill="url(#skin)"/>
  <!-- shorts -->
  <path d="M421 533c73 26 158 31 235 4l16 168-112 9-18-101-17 101-121-8 17-173Z" fill="url(#shorts)"/>
  <path d="m409 701 127 6-23 188-104-8V701Z" fill="url(#skin)"/>
  <path d="m560 708 112-9 44 178-104 24-52-193Z" fill="url(#skin)"/>
  <!-- legs -->
  <path d="m410 878 103 7-8 191-75 3-20-201Z" fill="url(#skin)"/>
  <path d="m611 889 103-23 76 184-71 25-108-186Z" fill="url(#skin)"/>
  <!-- shoes -->
  <path d="M429 1066h78c27 20 39 44 36 67H398c-5-33 8-55 31-67Z" fill="#11130f"/>
  <path d="m715 1053 76-26c31 10 52 28 63 50l-129 48c-17-22-20-45-10-72Z" fill="#11130f"/>
  <path d="M409 1114h129" stroke="#d7ff3f" stroke-width="8"/>
  <path d="m727 1106 118-43" stroke="#d7ff3f" stroke-width="8"/>
</g>
<g fill="#fff" opacity=".45"><circle cx="140" cy="210" r="5"/><circle cx="195" cy="300" r="8"/><circle cx="120" cy="390" r="3"/></g>
</svg>